<mxfile host="app.diagrams.net" modified="2021-11-19T13:17:25.374Z" agent="5.0 (Windows NT 10.0; Win64; x64) AppleWebKit/537.36 (KHTML, like Gecko) Chrome/96.0.4664.45 Safari/537.36" etag="sgcZJTgM4dSi9K9lObfd" version="15.7.4" type="github">
  <diagram id="aga0NRWalm5TCz8jIIEZ" name="Page-1">
    <mxGraphModel dx="1038" dy="537" grid="1" gridSize="10" guides="1" tooltips="1" connect="1" arrows="1" fold="1" page="1" pageScale="1" pageWidth="827" pageHeight="1169" math="0" shadow="0">
      <root>
        <mxCell id="0" />
        <mxCell id="1" parent="0" />
        <mxCell id="svvcLA5SLgqo-4r68F8F-1" value="" style="ellipse;html=1;shape=startState;fillColor=#000000;strokeColor=#ff0000;" vertex="1" parent="1">
          <mxGeometry x="40" y="120" width="30" height="30" as="geometry" />
        </mxCell>
        <mxCell id="svvcLA5SLgqo-4r68F8F-2" value="" style="edgeStyle=orthogonalEdgeStyle;html=1;verticalAlign=bottom;endArrow=open;endSize=8;strokeColor=#000000;rounded=0;" edge="1" parent="1">
          <mxGeometry relative="1" as="geometry">
            <mxPoint x="190" y="134.5" as="targetPoint" />
            <mxPoint x="60" y="134.5" as="sourcePoint" />
          </mxGeometry>
        </mxCell>
        <mxCell id="svvcLA5SLgqo-4r68F8F-3" value="State1" style="shape=folder;align=center;verticalAlign=middle;fontStyle=0;tabWidth=100;tabHeight=30;tabPosition=left;html=1;boundedLbl=1;labelInHeader=1;rounded=1;absoluteArcSize=1;arcSize=10;strokeWidth=2;" vertex="1" parent="1">
          <mxGeometry x="190" y="80" width="140" height="90" as="geometry" />
        </mxCell>
        <mxCell id="svvcLA5SLgqo-4r68F8F-4" value="create" style="text;html=1;strokeColor=none;fillColor=none;align=center;verticalAlign=middle;whiteSpace=wrap;rounded=0;" vertex="1" parent="1">
          <mxGeometry x="230" y="120" width="60" height="30" as="geometry" />
        </mxCell>
        <mxCell id="svvcLA5SLgqo-4r68F8F-5" value="State2" style="shape=folder;align=center;verticalAlign=middle;fontStyle=0;tabWidth=100;tabHeight=30;tabPosition=left;html=1;boundedLbl=1;labelInHeader=1;rounded=1;absoluteArcSize=1;arcSize=10;strokeWidth=2;" vertex="1" parent="1">
          <mxGeometry x="460" y="80" width="140" height="90" as="geometry" />
        </mxCell>
        <mxCell id="svvcLA5SLgqo-4r68F8F-6" value="" style="edgeStyle=orthogonalEdgeStyle;html=1;verticalAlign=bottom;endArrow=open;endSize=8;strokeColor=#000000;rounded=0;" edge="1" parent="1">
          <mxGeometry relative="1" as="geometry">
            <mxPoint x="460" y="134.5" as="targetPoint" />
            <mxPoint x="330" y="134.5" as="sourcePoint" />
          </mxGeometry>
        </mxCell>
      </root>
    </mxGraphModel>
  </diagram>
</mxfile>
